<svg id="Layer_1" data-name="Layer 1" xmlns="http://www.w3.org/2000/svg" viewBox="0 0 80 54"><path d="M16,40c7.29,2.25,16.18-.69,23.54,1.36,8.82,2.72,18.38,2.72,27.2,2.72,0-1.36-.73-3.4,0-4.08,2.94-2,2.94-4.77,2.94-7.5,0-1.36-2.2,0-1.47-1.36-2.2,0-5.88-.68-3.67-2,.73-1.36,3.67,0,4.41-2s-.74-4.09,0-6.13h2.94c.73-1.37-.74-4.09,0-4.09,2.2-1.36,5.15-.68,8.09-.68,0-1.36.73-2.72-.74-3.41C53.49,11.36,27,8.64,1.28,10.68c-2.94.68-.74,3.41,1.47,5.45-.74-.68-.74,1.36-1.47.68,0,2,1.47,5.45,4.41,6.13H3.48c-.73.68,0,2,0,3.4.74,0,1.47,0,1.47.69v2.72H2c.74,0,1.47,0,1.47.68v2.73c1.47.68,3.68-.69,5.15,0v2c-1.47.68-3.68,0-5.15,0,.74.68.74,1.36.74,2.72,2.2.68,4.41-1.36,6.62.68H8.63C10.1,42,13.78,39.28,16,40Z"/></svg>